<svg width="87" height="87" viewBox="0 0 87 87" fill="none" xmlns="http://www.w3.org/2000/svg">
<path d="M21.57 9.128C21.57 6.83971 22.479 4.64515 24.0971 3.02708C25.7151 1.40902 27.9097 0.5 30.198 0.5H56.082C58.3703 0.5 60.5649 1.40902 62.1829 3.02708C63.801 4.64515 64.71 6.83971 64.71 9.128V17.756H81.966C83.1101 17.756 84.2074 18.2105 85.0165 19.0195C85.8255 19.8286 86.28 20.9259 86.28 22.07C86.28 23.2141 85.8255 24.3114 85.0165 25.1205C84.2074 25.9295 83.1101 26.384 81.966 26.384H77.3543L73.6141 78.7646C73.4592 80.9414 72.4851 82.9786 70.8881 84.4659C69.2912 85.9532 67.1899 86.7801 65.0077 86.78H21.268C19.0857 86.7801 16.9845 85.9532 15.3875 84.4659C13.7906 82.9786 12.8165 80.9414 12.6616 78.7646L8.92998 26.384H4.314C3.16986 26.384 2.07257 25.9295 1.26354 25.1205C0.454509 24.3114 0 23.2141 0 22.07C0 20.9259 0.454509 19.8286 1.26354 19.0195C2.07257 18.2105 3.16986 17.756 4.314 17.756H21.57V9.128ZM30.198 17.756H56.082V9.128H30.198V17.756ZM17.5752 26.384L21.2723 78.152H65.012L68.7091 26.384H17.5752ZM34.512 35.012C35.6561 35.012 36.7534 35.4665 37.5625 36.2755C38.3715 37.0846 38.826 38.1819 38.826 39.326V65.21C38.826 66.3541 38.3715 67.4514 37.5625 68.2605C36.7534 69.0695 35.6561 69.524 34.512 69.524C33.3679 69.524 32.2706 69.0695 31.4615 68.2605C30.6525 67.4514 30.198 66.3541 30.198 65.21V39.326C30.198 38.1819 30.6525 37.0846 31.4615 36.2755C32.2706 35.4665 33.3679 35.012 34.512 35.012ZM51.768 35.012C52.9121 35.012 54.0094 35.4665 54.8185 36.2755C55.6275 37.0846 56.082 38.1819 56.082 39.326V65.21C56.082 66.3541 55.6275 67.4514 54.8185 68.2605C54.0094 69.0695 52.9121 69.524 51.768 69.524C50.6239 69.524 49.5266 69.0695 48.7175 68.2605C47.9085 67.4514 47.454 66.3541 47.454 65.21V39.326C47.454 38.1819 47.9085 37.0846 48.7175 36.2755C49.5266 35.4665 50.6239 35.012 51.768 35.012Z" fill="#0D0D0D"/>
</svg>
