<svg width="87" height="87" viewBox="0 0 87 87" fill="none" xmlns="http://www.w3.org/2000/svg">
<path d="M60.3649 1.32957C61.2165 0.478248 62.3713 0 63.5755 0C64.7796 0 65.9344 0.478248 66.786 1.32957L84.9504 19.494C85.8018 20.3456 86.28 21.5004 86.28 22.7045C86.28 23.9087 85.8018 25.0635 84.9504 25.9151L25.9161 84.9495C25.0647 85.8011 23.9098 86.2797 22.7055 86.28H4.5411C3.33673 86.28 2.18168 85.8016 1.33006 84.9499C0.478436 84.0983 0 82.9433 0 81.7389V63.5745C0.000257196 62.3702 0.478862 61.2153 1.33054 60.3639L46.7416 14.9529L60.3649 1.32957ZM49.9521 24.5846L9.08221 65.4545V77.1978H20.8255L61.6954 36.3279L49.9521 24.5846ZM68.1166 29.9067L75.3188 22.7045L63.5755 10.9613L56.3733 18.1634L68.1166 29.9067Z" fill="#0D0D0D"/>
</svg>
