<svg width="87" height="87" viewBox="0 0 87 87" fill="none" xmlns="http://www.w3.org/2000/svg">
<path d="M1.33612 85.3078L1.35194 85.3236C1.77159 85.7464 2.27065 86.082 2.82045 86.3112C3.37024 86.5403 3.95992 86.6586 4.55557 86.6591C5.05678 86.6587 5.55453 86.5761 6.02896 86.4145L31.8599 77.652L81.4277 28.0841C84.4579 25.0537 86.1602 20.9436 86.16 16.658C86.1598 12.3724 84.4572 8.26249 81.4267 5.23228C78.3962 2.20206 74.2861 0.499812 70.0006 0.5C65.715 0.500188 61.6051 2.2028 58.5749 5.23328L9.00703 54.8011L0.245259 80.6313C-0.0307365 81.4346 -0.0747905 82.2993 0.118149 83.1264C0.311088 83.9536 0.73321 84.7096 1.33612 85.3078ZM62.6911 9.34913C64.6324 7.42268 67.2579 6.34397 69.9928 6.34923C72.7277 6.35448 75.3491 7.44326 77.2829 9.37716C79.2168 11.3111 80.3055 13.9325 80.3107 16.6674C80.3159 19.4023 79.2371 22.0278 77.3106 23.969L70.7924 30.4872L56.1725 15.8673L62.6911 9.34913ZM14.0839 57.9562L52.0567 19.9832L66.6765 34.6031L28.7036 72.5759L6.5783 80.0814L14.0839 57.9562Z" fill="black"/>
</svg>
