<svg width="87" height="87" viewBox="0 0 87 87" fill="none" xmlns="http://www.w3.org/2000/svg">
<path d="M43.08 86.1598C34.5596 86.1599 26.2305 83.6333 19.1461 78.8996C12.0616 74.1659 6.53991 67.4378 3.27929 59.5659C0.0186621 51.6941 -0.834463 43.0322 0.827794 34.6755C2.49005 26.3188 6.59303 18.6427 12.6179 12.6178C20.697 4.53877 31.6545 -8.51268e-08 43.08 0C54.5056 8.51267e-08 65.4631 4.53877 73.5422 12.6178C81.6212 20.6969 86.16 31.6544 86.16 43.08C86.16 54.5055 81.6212 65.463 73.5422 73.5421C69.5511 77.555 64.8038 80.7364 59.575 82.9022C54.3461 85.0681 48.7397 86.1753 43.08 86.1598ZM43.08 5.74408C22.4931 5.74408 5.74414 22.493 5.74414 43.08C5.74414 63.6669 22.4931 80.4159 43.08 80.4159C63.667 80.4159 80.4159 63.6669 80.4159 43.08C80.4159 22.493 63.667 5.74408 43.08 5.74408Z" fill="black"/>
<path d="M37.9307 65.2146L33.8694 61.1532L51.9423 43.08L33.8694 25.0067L37.9307 20.9454L60.0655 43.08L37.9307 65.2146Z" fill="black"/>
</svg>
